*******************************************************************************
 Harry Potter And The Deathly Hallows Pt2.2011.DVDSCR.Xvid.AC3- SiNiSTER 
*******************************************************************************
-------------------------------------------------------------------------------
 General Information
------------------------------------------------------------------------------- 
http://www.pix2links.com/image/RpOtc.jpg
Format : AVI
Format/Info : Audio Video Interleave
File size : 1.48 GiB
Duration : 2h 5mn
Overall bit rate : 1 698 Kbps
Writing application : VirtualDubMod 1.5.10.2 (build 2540/release)
Writing library : VirtualDubMod build 2540/release
Video
ID : 0
Format : MPEG-4 Visual
Format profile : Advanced Simple@L5
Format settings, BVOP : Yes
Format settings, QPel : Yes
Format settings, GMC : 3 warppoints
Format settings, Matrix : Default (H.263)
Muxing mode : Packed bitstream
Codec ID : XVID
Codec ID/Hint : XviD
Duration : 2h 5mn
Bit rate : 1 366 Kbps
Width : 672 pixels
Height : 288 pixels
Display aspect ratio : 2.35:1
Frame rate : 29.970 fps
Color space : YUV
Chroma subsampling : 4:2:0
Bit depth : 8 bits
Scan type : Progressive
Bits/(Pixel*Frame) : 0.236
Stream size : 1.19 GiB (80%)
Writing library : XviD 64
Audio
ID : 1
Format : AC-3
Format/Info : Audio Coding 3
Mode extension : CM (complete main)
Codec ID : 2000
Duration : 2h 5mn
Bit rate mode : Constant
Bit rate : 320 Kbps
Channel(s) : 6 channels
Channel positions : Front: L C R, Side: L R, LFE
Sampling rate : 48.0 KHz
Bit depth : 16 bits
Stream size : 286 MiB (19%)
Alignment : Split accross interleaves
Interleave, duration : 33 ms (1.00 video frame)
Interleave, preload duration : 500 ms
Video Source: Harry.Potter.e.as.Relφquias.da.Morte.Parte.2.DVDRip.XviD-LTW.....thanks 
Audio Source: Harry.Potter.e.as.Relφquias.da.Morte.Parte.2.DVDRip.XviD-LTW.....thanks
Greets:
DarkScene,HDScene,Noir,CrEwSaDe,blackjesus,ViSiON,HDLiTE,UnKnOwN,IMAGiNE,
FLAWL3SS,Rx,ELEKTRI4KA,CiNEDUB,BDK,SAFCuk009,HiVE-CM8..... and everybody else we 
respect.. u know who u are
-------------------------------------------------------------------------------
 Post Information
-------------------------------------------------------------------------------
Encoded by...........: SiNiSTER
 
Have sumthing to offer..looking for suppliers... cammers,cams,screeners, audio
supplier.. and any pre retail DVD/BR any RC...if u can provide any email us at
sinister@hushmail.me
-------------------------------------------------------------------------------
 Release Notes
-------------------------------------------------------------------------------
source was ok.. needed denoised, dedgrained a lil, smoothed, RGB, hue, saturation,
were all needing adjusted then levels and sharpened.. then demuxed audio and 
converted to higher bitrate AC3 ad converted to 5.1......enjoy
-------------------------------------------------------------------------------
 ScreenShots
------------------------------------------------------------------------------- 
http://www.pix2links.com/image/Jtl89.png 
http://www.pix2links.com/image/u9I65.png 
http://www.pix2links.com/image/SaqXl.png 
http://www.pix2links.com/image/8EIia.png 
http://www.pix2links.com/image/3Bymb.jpg
-------------------------------------------------------------------------------
[img]http://leetleech.org/images/33506450373550172140.gif[/img]
-------------------------------------------------------------------------------
Generated with Cool NFO Creator - http://fly.to/coolbeans
-------------------------------------------------------------------------------
[img]http://www.pix2links.com/images/33502453931372952618.gif[/img]